<svg width="20" height="20" viewBox="0 0 20 20" fill="none" xmlns="http://www.w3.org/2000/svg">
<g clip-path="url(#clip0)">
<path d="M20 4.02206C18.7419 4.08005 18.7694 4.07532 18.6272 4.08722L19.3723 1.95938C19.3723 1.95938 17.0465 2.81494 16.4569 2.96799C14.9084 1.57623 12.6068 1.51474 10.9613 2.52609C9.6138 3.35449 8.89053 4.77707 9.13177 6.43982C6.50925 6.0759 4.29962 4.83276 2.55508 2.73712L2.00333 2.07443L1.59103 2.83157C1.06995 3.7883 0.896912 4.8822 1.10367 5.91171C1.18851 6.33408 1.3327 6.73691 1.53244 7.11411L1.05911 6.9307L1.00296 7.72156C0.946045 8.52493 1.21353 9.46274 1.7186 10.23C1.86081 10.446 2.04391 10.6833 2.276 10.9174L2.0314 10.8798L2.32986 11.786C2.72217 12.9767 3.53699 13.8979 4.59442 14.4099C3.53836 14.8581 2.68524 15.144 1.28296 15.6053L0 16.0271L1.185 16.675C1.63681 16.922 3.23334 17.747 4.81079 17.9945C8.31726 18.5445 12.2652 18.0966 14.9229 15.703C17.1616 13.6868 17.8961 10.8189 17.7435 7.83447C17.7205 7.38266 17.8442 6.95145 18.092 6.62048C18.5884 5.95779 19.9969 4.02649 20 4.02206V4.02206ZM17.155 5.91858C16.7435 6.46805 16.5373 7.1698 16.5742 7.89429C16.7282 10.9047 15.9091 13.2393 14.1396 14.8329C12.0724 16.6946 8.73825 17.4254 4.99222 16.8378C4.31381 16.7314 3.61267 16.4932 3.03238 16.2553C4.20807 15.8508 5.11597 15.4903 6.58218 14.7963L8.629 13.8275L6.36917 13.6829C5.28671 13.6136 4.38538 13.089 3.83133 12.2372C4.12552 12.2202 4.40918 12.1725 4.69162 12.0938L6.84692 11.4935L4.67361 10.9613C3.61755 10.7027 3.01559 10.0708 2.69653 9.58618C2.48703 9.26773 2.35016 8.9415 2.26807 8.64075C2.48596 8.69919 2.74002 8.74085 3.14972 8.78143L5.16128 8.98041L3.5675 7.73712C2.41913 6.84143 1.95892 5.49576 2.29629 4.20212C5.88028 7.91946 10.0883 7.64008 10.5119 7.73834C10.4187 6.83273 10.4163 6.8306 10.3918 6.74439C9.84939 4.82681 11.0382 3.85315 11.5744 3.52356C12.6944 2.83524 14.4722 2.73148 15.7036 3.86551C15.9695 4.11026 16.3292 4.20654 16.6658 4.12293C16.9679 4.04785 17.2159 3.96835 17.4586 3.88184L16.9533 5.32501L17.5984 5.32547C17.4767 5.48874 17.3306 5.6842 17.155 5.91858Z" fill="black"/>
</g>
<defs>
<clipPath id="clip0">
<rect width="20" height="20" fill="white"/>
</clipPath>
</defs>
</svg>
