<svg width="20" height="20" viewBox="0 0 20 20" fill="none" xmlns="http://www.w3.org/2000/svg">
<path d="M19.1667 9.18395H0.833333C0.373332 9.18395 0 9.55728 0 10.0173C0 10.4773 0.373332 10.8506 0.833333 10.8506H19.1667C19.6267 10.8506 20 10.4773 20 10.0173C20 9.55728 19.6267 9.18395 19.1667 9.18395Z" fill="black"/>
<path d="M19.1667 15.5729H0.833333C0.373332 15.5729 0 15.9463 0 16.4063C0 16.8663 0.373332 17.2396 0.833333 17.2396H19.1667C19.6267 17.2396 20 16.8663 20 16.4063C20 15.9463 19.6267 15.5729 19.1667 15.5729Z" fill="black"/>
<path d="M19.1667 2.79522H0.833333C0.373332 2.79522 0 3.16855 0 3.62855C0 4.08855 0.373332 4.46188 0.833333 4.46188H19.1667C19.6267 4.46188 20 4.08855 20 3.62855C20 3.16855 19.6267 2.79522 19.1667 2.79522Z" fill="black"/>
</svg>
