<svg width="20" height="20" viewBox="0 0 20 20" fill="none" xmlns="http://www.w3.org/2000/svg">
<g clip-path="url(#clip0)">
<path d="M17.8023 11.9805L17.7915 11.9704C17.6207 11.8125 17.0977 11.3024 16.9213 11.0795C16.7142 10.8014 16.762 10.6192 16.9171 10.3461C17.1132 10.0011 17.5061 9.47178 17.9219 8.9113C19.2537 7.11672 20.1136 5.87436 19.9366 4.9919L19.8412 4.52055L14.9228 4.52269C14.9056 4.56917 14.6489 5.69885 13.5659 7.62247C12.7805 9.01725 12.2653 9.45542 12.0839 9.53278L12.0558 9.52422C11.9968 9.45114 11.8936 9.25392 11.8512 8.74557C11.807 8.21307 11.8462 7.56834 11.8842 6.94487C11.9286 6.21377 11.9669 5.58235 11.8752 5.13057L11.7258 4.39457C11.5453 4.36568 10.8844 4.11021 9.04314 4.09079C7.44905 4.07443 6.98076 4.30514 6.75081 4.50847L5.99015 5.18102L6.95161 5.50514C7.31752 5.62852 7.43898 5.77086 7.53862 6.47643C7.60362 6.93631 7.63765 7.70915 7.56746 8.39913C7.4666 9.38846 7.22475 9.57253 7.21223 9.58232C7.17058 9.5681 6.81733 9.41323 6.20408 8.11415C5.77867 7.21319 5.40574 6.14742 5.13322 5.36923C4.82133 4.47805 4.87748 4.66778 4.71925 4.24673L-0.0390625 4.24658L0.26886 5.04465C1.55258 8.37497 2.73041 10.9757 4.30665 12.8437C6.04814 14.9075 8.21245 15.9881 11.1278 15.9881H11.7137V15.401C11.7137 14.8522 11.7591 14.457 11.8563 14.1573C11.9156 13.9747 11.9945 13.8238 12.0774 13.6656C12.2003 13.4326 12.3206 13.3328 12.3862 13.3179C12.4457 13.3043 12.5504 13.3481 12.6663 13.4348C12.9993 13.6835 13.2636 14.0104 13.5434 14.3565C13.9472 14.856 14.3647 15.3723 15.027 15.7103C15.389 15.895 16.0524 15.9883 16.4176 15.9883C16.5142 15.9883 19.9567 15.9881 19.961 15.9881L19.9358 15.3769C19.8983 14.4629 19.1803 13.3201 17.8023 11.9805V11.9805ZM16.4403 14.8139H16.4308C16.1791 14.8181 15.6986 14.7354 15.5588 14.6641C15.1184 14.4394 14.8107 14.0585 14.4541 13.6176C14.1411 13.2303 13.8175 12.8299 13.3669 12.4934C13.0025 12.2211 12.6715 12.1415 12.4088 12.1415C12.3038 12.1415 12.2095 12.1542 12.1286 12.1725C11.8236 12.2413 11.3874 12.4612 11.0405 13.1184C10.9427 13.3054 10.8318 13.5172 10.7419 13.7942C10.6478 14.0841 10.5892 14.4062 10.5612 14.798C8.36427 14.673 6.64995 13.8021 5.20158 12.0857C3.85499 10.4897 2.79557 8.2574 1.67359 5.42029C1.75476 5.42029 3.78892 5.4206 3.909 5.4206C3.94578 5.5241 3.98545 5.63754 4.02757 5.75771C4.3213 6.59721 4.72367 7.74676 5.19776 8.72707C5.87663 10.1309 6.49659 10.7569 7.20781 10.7569C7.56288 10.7569 7.88133 10.6062 8.12868 10.3208C8.48131 9.91393 8.68608 9.24245 8.75475 8.2678C8.80892 7.49924 8.75856 6.73374 8.69905 6.31192C8.64992 5.96487 8.57988 5.60054 8.40898 5.27413C9.13729 5.24126 10.1125 5.29324 10.7303 5.38207C10.7865 5.68845 10.7498 6.29067 10.7144 6.87332C10.6288 8.2808 10.5405 9.73322 11.284 10.4128C11.4148 10.5324 11.5535 10.5964 11.5575 10.599L11.9359 10.7154C12.0819 10.6703 12.9277 11.1002 14.5293 8.29975C15.0424 7.40246 15.5202 6.36849 15.7775 5.69319C16.3741 5.69197 18.4067 5.69426 18.6455 5.69457C18.3072 6.4405 17.5055 7.50444 16.9815 8.21062C16.5247 8.82614 16.1302 9.35773 15.8988 9.76502C15.4688 10.5217 15.5411 11.196 15.989 11.7909L15.996 11.8001C16.2459 12.1189 16.8631 12.709 16.9912 12.8279C17.9186 13.7301 18.3655 14.3782 18.5782 14.8138H16.4403V14.8139Z" fill="black"/>
</g>
<defs>
<clipPath id="clip0">
<rect width="20" height="20" fill="white"/>
</clipPath>
</defs>
</svg>
